<?xml version="1.0" standalone="no"?>
<!DOCTYPE svg PUBLIC "-//W3C//DTD SVG 20010904//EN"
 "http://www.w3.org/TR/2001/REC-SVG-20010904/DTD/svg10.dtd">
<svg version="1.0" xmlns="http://www.w3.org/2000/svg"
 width="400.000000pt" height="400.000000pt" viewBox="0 0 400.000000 400.000000"
 preserveAspectRatio="xMidYMid meet">

<g transform="translate(0.000000,400.000000) scale(0.100000,-0.100000)"
fill="#000000" stroke="none">
<path d="M0 2000 l0 -2000 2000 0 2000 0 0 924 0 925 -53 -6 c-64 -7 -109 13
-132 57 -24 47 -20 60 20 60 19 0 35 -4 35 -9 0 -19 32 -41 59 -41 34 0 54 21
49 52 -2 18 -16 27 -66 44 -77 27 -89 37 -103 83 -9 29 -8 44 4 73 21 50 65
71 134 66 l53 -5 0 889 0 888 -2000 0 -2000 0 0 -2000z m393 52 c42 -125 77
-230 77 -234 0 -5 -22 -8 -50 -8 l-49 0 -18 50 -18 50 -81 0 -81 0 -19 -52
c-19 -52 -20 -53 -62 -56 -29 -2 -42 1 -42 10 0 7 34 115 76 240 l76 228 56 0
57 0 78 -228z m220 219 l137 -1 0 -45 0 -44 -57 -3 -58 -3 -3 -182 -2 -183
-40 0 -40 0 -1 158 c-1 86 -1 161 0 166 1 4 -1 17 -4 27 -5 16 -16 19 -64 19
l-58 0 3 48 c1 26 3 48 3 49 1 2 11 1 24 -1 12 -3 84 -5 160 -5z m658 -113
c12 -40 37 -122 55 -183 19 -60 34 -113 34 -117 0 -5 -18 -8 -39 -8 -37 0 -40
2 -48 38 l-9 37 -64 0 -64 0 -9 -37 c-8 -36 -11 -38 -47 -38 -38 0 -39 1 -30
28 5 15 30 97 56 182 25 85 48 158 51 163 2 4 24 7 48 7 l44 0 22 -72z m327
35 c3 -31 3 -32 -45 -35 l-48 -3 -3 -152 -3 -153 -34 0 -35 0 0 155 0 155 -45
0 c-45 0 -45 0 -45 35 l0 36 128 -3 127 -3 3 -32z m260 0 l3 -33 -75 0 -76 0
0 -45 0 -45 65 0 65 0 0 -35 0 -35 -65 0 -65 0 0 -45 0 -45 75 0 75 0 0 -30 0
-30 -115 0 -115 0 0 183 c0 101 3 187 7 191 4 3 54 5 112 4 l106 -3 3 -32z
m268 21 c28 -14 74 -79 74 -107 0 -4 -17 -7 -37 -7 -32 0 -41 5 -55 30 -22 38
-65 41 -105 6 -26 -23 -28 -29 -28 -100 0 -85 15 -110 72 -122 28 -5 37 -2 62
25 20 22 38 31 60 31 36 0 39 -12 11 -58 -32 -52 -76 -74 -138 -69 -60 4 -97
27 -127 78 -29 49 -28 180 1 229 43 74 132 101 210 64z m194 -59 l0 -75 65 0
65 0 0 75 0 75 35 0 35 0 0 -189 0 -189 -35 -4 -34 -4 -3 81 -3 80 -62 3 -63
3 0 -81 0 -80 -37 0 -38 0 3 187 c1 104 2 189 2 190 0 2 16 3 35 3 l35 0 0
-75z m500 39 c0 -34 -1 -34 -45 -34 l-45 0 0 -155 0 -155 -40 0 -40 0 0 155 0
155 -45 0 c-45 0 -45 0 -45 35 l0 36 130 -2 130 -1 0 -34z m261 13 c54 -36 79
-90 79 -170 0 -115 -54 -186 -149 -194 -63 -6 -128 28 -159 82 -19 34 -22 52
-20 122 3 90 17 119 78 161 46 31 124 31 171 -1z m359 2 c70 -39 105 -145 80
-239 -15 -57 -73 -116 -123 -125 -115 -22 -196 55 -198 188 -2 92 34 161 96
187 38 16 106 11 145 -11z m202 -136 l3 -158 68 -3 c67 -3 67 -3 67 -32 l0
-30 -105 0 -105 0 0 190 0 190 35 0 34 0 3 -157z"/>
<path d="M231 2088 c-13 -40 -26 -79 -28 -85 -4 -10 10 -13 52 -13 64 0 61
-12 21 107 l-22 64 -23 -73z"/>
<path d="M1198 2114 c-5 -8 -38 -113 -38 -121 0 -2 18 -3 41 -3 41 0 41 0 34
32 -13 55 -31 102 -37 92z"/>
<path d="M2939 2131 c-25 -26 -29 -37 -29 -86 0 -92 43 -145 105 -129 77 19
97 170 28 223 -36 29 -69 26 -104 -8z"/>
<path d="M3312 2140 c-43 -40 -51 -133 -16 -187 52 -82 154 -32 154 75 0 107
-76 169 -138 112z"/>
<path d="M3892 2148 c-16 -16 -15 -43 1 -55 6 -6 33 -17 60 -26 l47 -16 0 30
c0 57 -72 103 -108 67z"/>
</g>
</svg>
